<?xml version="1.0" encoding="UTF-8" standalone="no"?>
<svg
   version="1.2"
   width="140.19mm"
   height="135.49001mm"
   viewBox="0 0 14019 13549.001"
   preserveAspectRatio="xMidYMid"
   fill-rule="evenodd"
   stroke-width="28.222"
   stroke-linejoin="round"
   xml:space="preserve"
   id="svg3593"
   sodipodi:docname="biscuit3b.svg"
   inkscape:version="1.2.2 (732a01da63, 2022-12-09, custom)"
   xmlns:inkscape="http://www.inkscape.org/namespaces/inkscape"
   xmlns:sodipodi="http://sodipodi.sourceforge.net/DTD/sodipodi-0.dtd"
   xmlns="http://www.w3.org/2000/svg"
   xmlns:svg="http://www.w3.org/2000/svg"
   xmlns:ooo="http://xml.openoffice.org/svg/export"><sodipodi:namedview
   id="namedview3595"
   pagecolor="#ffffff"
   bordercolor="#000000"
   borderopacity="0.25"
   inkscape:showpageshadow="2"
   inkscape:pageopacity="0.0"
   inkscape:pagecheckerboard="0"
   inkscape:deskcolor="#d1d1d1"
   inkscape:document-units="mm"
   showgrid="false"
   inkscape:zoom="0.94608586"
   inkscape:cx="342.46363"
   inkscape:cy="262.13266"
   inkscape:window-width="1920"
   inkscape:window-height="1031"
   inkscape:window-x="0"
   inkscape:window-y="25"
   inkscape:window-maximized="1"
   inkscape:current-layer="layer2" />
 <defs
   class="ClipPathGroup"
   id="defs3227">
  <clipPath
   id="presentation_clip_path"
   clipPathUnits="userSpaceOnUse">
   <rect
   x="0"
   y="0"
   width="29700"
   height="21000"
   id="rect3221" />
  </clipPath>
  <clipPath
   id="presentation_clip_path_shrink"
   clipPathUnits="userSpaceOnUse">
   <rect
   x="29"
   y="21"
   width="29641"
   height="20958"
   id="rect3224" />
  </clipPath>
 </defs>
 <defs
   class="TextShapeIndex"
   id="defs3231">
  <g
   ooo:slide="id1"
   ooo:id-list="id3 id4 id5 id6 id7 id8 id9 id10 id11 id12 id13 id14 id15 id16 id17 id18 id19 id20 id21 id22 id23 id24 id25 id26 id27 id28 id29 id30 id31 id32 id33 id34 id35 id36 id37 id38 id39 id40 id41 id42 id43 id44 id45 id46 id47"
   id="g3229" />
 </defs>
 <defs
   class="EmbeddedBulletChars"
   id="defs3263">
  <g
   id="bullet-char-template-57356"
   transform="matrix(4.8828125e-4,0,0,-4.8828125e-4,0,0)">
   <path
   d="M 580,1141 1163,571 580,0 -4,571 Z"
   id="path3233" />
  </g>
  <g
   id="bullet-char-template-57354"
   transform="matrix(4.8828125e-4,0,0,-4.8828125e-4,0,0)">
   <path
   d="M 8,1128 H 1137 V 0 H 8 Z"
   id="path3236" />
  </g>
  <g
   id="bullet-char-template-10146"
   transform="matrix(4.8828125e-4,0,0,-4.8828125e-4,0,0)">
   <path
   d="M 174,0 602,739 174,1481 1456,739 Z M 1358,739 309,1346 659,739 Z"
   id="path3239" />
  </g>
  <g
   id="bullet-char-template-10132"
   transform="matrix(4.8828125e-4,0,0,-4.8828125e-4,0,0)">
   <path
   d="M 2015,739 1276,0 H 717 l 543,543 H 174 v 393 h 1086 l -543,545 h 557 z"
   id="path3242" />
  </g>
  <g
   id="bullet-char-template-10007"
   transform="matrix(4.8828125e-4,0,0,-4.8828125e-4,0,0)">
   <path
   d="m 0,-2 c -7,16 -16,29 -25,39 l 381,530 c -94,256 -141,385 -141,387 0,25 13,38 40,38 9,0 21,-2 34,-5 21,4 42,12 65,25 l 27,-13 111,-251 280,301 64,-25 24,25 c 21,-10 41,-24 62,-43 C 886,937 835,863 770,784 769,783 710,716 594,584 L 774,223 c 0,-27 -21,-55 -63,-84 l 16,-20 C 717,90 699,76 672,76 641,76 570,178 457,381 L 164,-76 c -22,-34 -53,-51 -92,-51 -42,0 -63,17 -64,51 -7,9 -10,24 -10,44 0,9 1,19 2,30 z"
   id="path3245" />
  </g>
  <g
   id="bullet-char-template-10004"
   transform="matrix(4.8828125e-4,0,0,-4.8828125e-4,0,0)">
   <path
   d="M 285,-33 C 182,-33 111,30 74,156 52,228 41,333 41,471 c 0,78 14,145 41,201 34,71 87,106 158,106 53,0 88,-31 106,-94 l 23,-176 c 8,-64 28,-97 59,-98 l 735,706 c 11,11 33,17 66,17 42,0 63,-15 63,-46 V 965 c 0,-36 -10,-64 -30,-84 L 442,47 C 390,-6 338,-33 285,-33 Z"
   id="path3248" />
  </g>
  <g
   id="bullet-char-template-9679"
   transform="matrix(4.8828125e-4,0,0,-4.8828125e-4,0,0)">
   <path
   d="M 813,0 C 632,0 489,54 383,161 276,268 223,411 223,592 c 0,181 53,324 160,431 106,107 249,161 430,161 179,0 323,-54 432,-161 108,-107 162,-251 162,-431 0,-180 -54,-324 -162,-431 C 1136,54 992,0 813,0 Z"
   id="path3251" />
  </g>
  <g
   id="bullet-char-template-8226"
   transform="matrix(4.8828125e-4,0,0,-4.8828125e-4,0,0)">
   <path
   d="m 346,457 c -73,0 -137,26 -191,78 -54,51 -81,114 -81,188 0,73 27,136 81,188 54,52 118,78 191,78 73,0 134,-26 185,-79 51,-51 77,-114 77,-187 0,-75 -25,-137 -76,-188 -50,-52 -112,-78 -186,-78 z"
   id="path3254" />
  </g>
  <g
   id="bullet-char-template-8211"
   transform="matrix(4.8828125e-4,0,0,-4.8828125e-4,0,0)">
   <path
   d="M -4,459 H 1135 V 606 H -4 Z"
   id="path3257" />
  </g>
  <g
   id="bullet-char-template-61548"
   transform="matrix(4.8828125e-4,0,0,-4.8828125e-4,0,0)">
   <path
   d="m 173,740 c 0,163 58,303 173,419 116,115 255,173 419,173 163,0 302,-58 418,-173 116,-116 174,-256 174,-419 0,-163 -58,-303 -174,-418 C 1067,206 928,148 765,148 601,148 462,206 346,322 231,437 173,577 173,740 Z"
   id="path3260" />
  </g>
 </defs>
 
 <g
   inkscape:groupmode="layer"
   id="layer2"
   inkscape:label="Layer 1"
   transform="translate(-5784,-3559)"><path
     fill="#ffde59"
     stroke="none"
     d="m 19803,10570 c 0,1148 -303,2275 -878,3269 -575,994 -1402,1819 -2398,2393 -996,574 -2126,876 -3276,876 -1151,0 -2281,-302 -3277,-876 -996,-574 -1823,-1399 -2398,-2393 -575,-994 -878,-2121 -878,-3269 0,-1148 303,-2275 878,-3269 575,-994 1402,-1819 2398,-2393 996,-574 2126,-876 3276,-876 1151,0 2281,302 3277,876 996,574 1823,1399 2398,2393 575,994 878,2121 878,3269 z m -3777,0 c 0,486 -128,964 -372,1385 -243,421 -594,770 -1016,1013 -422,243 -900,371 -1388,371 -487,0 -965,-128 -1387,-371 -422,-243 -773,-592 -1016,-1013 -244,-421 -372,-899 -372,-1385 0,-486 128,-964 372,-1385 243,-421 594,-770 1016,-1013 422,-243 900,-371 1387,-371 488,0 966,128 1388,371 422,243 773,592 1016,1013 244,421 372,899 372,1385 z"
     id="path3272" /><path
     fill="#784b04"
     stroke="none"
     d="m 19085,10200 c 0,1165 -307,2310 -891,3320 -584,1009 -1423,1848 -2434,2430 -1011,583 -2158,890 -3325,890 -1168,0 -2315,-307 -3326,-890 -1011,-582 -1850,-1421 -2434,-2430 -584,-1010 -891,-2155 -891,-3320 0,-1166 307,-2311 891,-3321 584,-1009 1423,-1848 2434,-2430 1011,-583 2158,-890 3325,-890 1168,0 2315,307 3326,890 1011,582 1850,1421 2434,2430 584,1010 891,2155 891,3320 z m -4014,0 c 0,462 -122,916 -353,1316 -232,400 -565,732 -965,963 -401,231 -856,353 -1318,353 -463,0 -918,-122 -1319,-353 -400,-231 -733,-563 -965,-963 -231,-400 -353,-854 -353,-1316 0,-463 122,-917 353,-1317 232,-400 565,-732 965,-963 401,-231 856,-353 1319,-353 462,0 917,122 1318,353 400,231 733,563 965,963 231,400 353,854 353,1316 z"
     id="path3279" /><path
     fill="#729fcf"
     stroke="none"
     d="m 9457,5315 v 0 c -20,0 -39,5 -56,15 -17,10 -31,24 -41,41 -10,17 -15,36 -15,56 v 840 0 c 0,20 5,39 15,56 10,17 24,31 41,41 17,10 36,15 56,15 v 0 0 c 20,0 39,-5 56,-15 17,-10 31,-24 41,-41 10,-17 15,-36 15,-56 v -840 0 0 c 0,-20 -5,-39 -15,-56 -10,-17 -24,-31 -41,-41 -17,-10 -36,-15 -56,-15 z"
     id="path3286" /><path
     fill="#ff4000"
     stroke="none"
     d="m 8482,6198 v 0 c -19,-5 -39,-5 -58,0 -19,5 -37,15 -50,29 -14,14 -24,31 -29,50 l -218,812 v 0 c -5,19 -5,39 0,58 5,19 15,36 29,50 14,14 31,24 50,29 v 0 0 c 19,5 39,5 58,0 19,-5 37,-15 50,-29 14,-14 24,-31 29,-50 l 218,-812 v 0 0 c 5,-19 5,-39 0,-58 -5,-19 -15,-36 -29,-50 -14,-14 -31,-24 -50,-29 z"
     id="path3293" /><path
     fill="#ffbf00"
     stroke="none"
     d="m 9623,7587 v 0 c -17,-10 -36,-15 -56,-15 -20,0 -39,5 -56,15 -17,10 -31,24 -41,41 l -420,728 v 0 c -10,17 -15,36 -15,56 0,19 5,39 15,56 10,17 24,31 41,41 v 0 0 c 17,10 36,15 56,15 20,0 39,-5 56,-15 17,-10 31,-24 41,-41 l 420,-728 v 0 0 c 10,-17 15,-36 15,-56 0,-19 -5,-39 -15,-56 -10,-17 -24,-31 -41,-41 z"
     id="path3300" /><path
     fill="#55308d"
     stroke="none"
     d="m 17394,8678 v 0 c -20,0 -39,5 -56,15 -17,10 -31,24 -41,41 -10,17 -15,36 -15,56 v 840 0 c 0,20 5,39 15,56 10,17 24,31 41,41 17,10 36,15 56,15 v 0 0 c 20,0 39,-5 56,-15 17,-10 31,-24 41,-41 10,-17 15,-36 15,-56 v -840 0 0 c 0,-20 -5,-39 -15,-56 -10,-17 -24,-31 -41,-41 -17,-10 -36,-15 -56,-15 z"
     id="path3307" /><path
     fill="#81d41a"
     stroke="none"
     d="m 16657,9699 v 0 c -14,-14 -31,-24 -50,-29 -19,-5 -39,-5 -58,0 -19,5 -36,15 -50,29 l -594,594 v 0 c -14,14 -24,31 -29,50 -5,19 -5,39 0,58 5,19 15,36 29,50 v 0 0 c 14,14 31,24 50,29 19,5 39,5 58,0 19,-5 36,-15 50,-29 l 594,-594 v 0 0 c 14,-14 24,-31 29,-50 5,-19 5,-39 0,-58 -5,-19 -15,-36 -29,-50 z"
     id="path3314" /><path
     fill="#ffff00"
     stroke="none"
     d="m 16763,11410 v 0 c 0,20 5,39 15,56 10,17 24,31 41,41 17,10 36,15 56,15 h 840 v 0 c 20,0 39,-5 56,-15 17,-10 31,-24 41,-41 10,-17 15,-36 15,-56 v 0 0 c 0,-20 -5,-39 -15,-56 -10,-17 -24,-31 -41,-41 -17,-10 -36,-15 -56,-15 h -840 v 0 0 c -20,0 -39,5 -56,15 -17,10 -31,24 -41,41 -10,17 -15,36 -15,56 z"
     id="path3321" /><path
     fill="#55308d"
     stroke="none"
     d="m 7572,9411 v 0 c 14,14 31,24 50,29 19,5 39,5 58,0 19,-5 36,-15 50,-29 l 594,-594 v 0 c 14,-14 24,-31 29,-50 5,-19 5,-39 0,-58 -5,-19 -15,-36 -29,-50 v 0 0 c -14,-14 -31,-24 -50,-29 -19,-5 -39,-5 -58,0 -19,5 -36,15 -50,29 l -594,594 v 0 0 c -14,14 -24,31 -29,50 -5,19 -5,39 0,58 5,19 15,36 29,50 z"
     id="path3328" /><path
     fill="#81d41a"
     stroke="none"
     d="m 6460,9525 v 0 c -14,14 -24,31 -29,50 -5,19 -5,39 0,58 5,19 15,36 29,50 l 594,594 v 0 c 14,14 31,24 50,29 19,5 39,5 58,0 19,-5 36,-15 50,-29 v 0 0 c 14,-14 24,-31 29,-50 5,-19 5,-39 0,-58 -5,-19 -15,-36 -29,-50 l -594,-594 v 0 0 c -14,-14 -31,-24 -50,-29 -19,-5 -39,-5 -58,0 -19,5 -36,15 -50,29 z"
     id="path3335" /><path
     fill="#ffff00"
     stroke="none"
     d="m 7850,10705 v 0 c -20,0 -39,5 -56,15 -17,10 -31,24 -41,41 -10,17 -15,36 -15,56 v 840 0 c 0,20 5,39 15,56 10,17 24,31 41,41 17,10 36,15 56,15 v 0 0 c 20,0 39,-5 56,-15 17,-10 31,-24 41,-41 10,-17 15,-36 15,-56 v -840 0 0 c 0,-20 -5,-39 -15,-56 -10,-17 -24,-31 -41,-41 -17,-10 -36,-15 -56,-15 z"
     id="path3342" /><path
     fill="#55308d"
     stroke="none"
     d="m 12888,4052 v 0 c -17,-10 -36,-15 -56,-15 -20,0 -39,5 -56,15 -17,10 -31,24 -41,41 l -420,728 v 0 c -10,17 -15,36 -15,56 0,19 5,39 15,56 10,17 24,31 41,41 v 0 0 c 17,10 36,15 56,15 20,0 39,-5 56,-15 17,-10 31,-24 41,-41 l 420,-728 v 0 0 c 10,-17 15,-36 15,-56 0,-19 -5,-39 -15,-56 -10,-17 -24,-31 -41,-41 z"
     id="path3349" /><path
     fill="#2a6099"
     stroke="none"
     d="m 11970,5111 v 0 c -10,-17 -24,-31 -41,-41 -17,-10 -37,-15 -56,-15 -20,0 -39,5 -56,15 l -728,420 v 0 c -17,10 -31,24 -41,41 -10,17 -15,36 -15,56 0,20 5,39 15,56 v 0 0 c 10,17 24,31 41,41 17,10 37,15 56,15 20,0 39,-5 56,-15 l 728,-420 v 0 0 c 17,-10 31,-24 41,-41 10,-17 15,-36 15,-56 0,-20 -5,-39 -15,-56 z"
     id="path3356" /><path
     fill="#ffff00"
     stroke="none"
     d="m 12386,6199 v 0 c -19,5 -36,15 -50,29 -14,14 -24,31 -29,50 -5,19 -5,39 0,58 l 218,812 v 0 c 5,19 15,36 29,50 13,14 31,24 50,29 19,5 39,5 58,0 v 0 0 c 19,-5 36,-15 50,-29 14,-14 24,-31 29,-50 5,-19 5,-39 0,-58 l -218,-812 v 0 0 c -5,-19 -15,-36 -29,-50 -13,-14 -31,-24 -50,-29 -19,-5 -39,-5 -58,0 z"
     id="path3363" /><path
     fill="#729fcf"
     stroke="none"
     d="m 15373,5285 v 0 c -14,-14 -31,-24 -50,-29 -19,-5 -39,-5 -58,0 -19,5 -36,15 -50,29 l -594,594 v 0 c -14,14 -24,31 -29,50 -5,19 -5,39 0,58 5,19 15,36 29,50 v 0 0 c 14,14 31,24 50,29 19,5 39,5 58,0 19,-5 36,-15 50,-29 l 594,-594 v 0 0 c 14,-14 24,-31 29,-50 5,-19 5,-39 0,-58 -5,-19 -15,-36 -29,-50 z"
     id="path3370" /><path
     fill="#ff4000"
     stroke="none"
     d="m 14059,5219 v 0 c -10,-17 -24,-31 -41,-41 -17,-10 -37,-15 -56,-15 -20,0 -39,5 -56,15 l -728,420 v 0 c -17,10 -31,24 -41,41 -10,17 -15,36 -15,56 0,20 5,39 15,56 v 0 0 c 10,17 24,31 41,41 17,10 37,15 56,15 20,0 39,-5 56,-15 l 728,-420 v 0 0 c 17,-10 31,-24 41,-41 10,-17 15,-36 15,-56 0,-20 -5,-39 -15,-56 z"
     id="path3377" /><path
     fill="#ffbf00"
     stroke="none"
     d="m 13884,7008 v 0 c -5,-19 -15,-36 -29,-50 -14,-14 -31,-24 -50,-29 -19,-5 -39,-5 -58,0 l -812,218 v 0 c -19,5 -36,15 -50,29 -14,13 -24,31 -29,50 -5,19 -5,39 0,58 v 0 0 c 5,19 15,36 29,50 14,14 31,24 50,29 19,5 39,5 58,0 l 812,-218 v 0 0 c 19,-5 36,-15 50,-29 14,-13 24,-31 29,-50 5,-19 5,-39 0,-58 z"
     id="path3384" /><path
     fill="#55308d"
     stroke="none"
     d="m 11143,6847 v 0 c 0,20 5,39 15,56 10,17 24,31 41,41 17,10 36,15 56,15 h 840 v 0 c 20,0 39,-5 56,-15 17,-10 31,-24 41,-41 10,-17 15,-36 15,-56 v 0 0 c 0,-20 -5,-39 -15,-56 -10,-17 -24,-31 -41,-41 -17,-10 -36,-15 -56,-15 h -840 v 0 0 c -20,0 -39,5 -56,15 -17,10 -31,24 -41,41 -10,17 -15,36 -15,56 z"
     id="path3391" /><path
     fill="#81d41a"
     stroke="none"
     d="m 10277,6142 v 0 c -20,0 -39,5 -56,15 -17,10 -31,24 -41,41 -10,17 -15,36 -15,56 v 840 0 c 0,20 5,39 15,56 10,17 24,31 41,41 17,10 36,15 56,15 v 0 0 c 20,0 39,-5 56,-15 17,-10 31,-24 41,-41 10,-17 15,-36 15,-56 v -840 0 0 c 0,-20 -5,-39 -15,-56 -10,-17 -24,-31 -41,-41 -17,-10 -36,-15 -56,-15 z"
     id="path3398" /><path
     fill="#ffff00"
     stroke="none"
     d="m 10425,7960 v 0 c -14,-14 -31,-24 -50,-29 -19,-5 -39,-5 -58,0 -19,5 -36,15 -50,29 l -594,594 v 0 c -14,14 -24,31 -29,50 -5,19 -5,39 0,58 5,19 15,36 29,50 v 0 0 c 14,14 31,24 50,29 19,5 39,5 58,0 19,-5 36,-15 50,-29 l 594,-594 v 0 0 c 14,-14 24,-31 29,-50 5,-19 5,-39 0,-58 -5,-19 -15,-36 -29,-50 z"
     id="path3405" /><path
     fill="#55308d"
     stroke="none"
     d="m 15897,7585 v 0 c -5,-19 -15,-36 -29,-50 -14,-14 -31,-24 -50,-29 -19,-5 -39,-5 -58,0 l -812,218 v 0 c -19,5 -36,15 -50,29 -14,13 -24,31 -29,50 -5,19 -5,39 0,58 v 0 0 c 5,19 15,36 29,50 14,14 31,24 50,29 19,5 39,5 58,0 l 812,-218 v 0 0 c 19,-5 36,-15 50,-29 14,-13 24,-31 29,-50 5,-19 5,-39 0,-58 z"
     id="path3412" /><path
     fill="#2a6099"
     stroke="none"
     d="m 17295,6918 v 0 c 5,-19 5,-39 0,-58 -5,-19 -15,-37 -29,-50 -14,-14 -31,-24 -50,-29 l -812,-218 v 0 c -19,-5 -39,-5 -58,0 -19,5 -36,15 -50,29 -14,14 -24,31 -29,50 v 0 0 c -5,19 -5,39 0,58 5,19 15,37 29,50 14,14 31,24 50,29 l 812,218 v 0 0 c 19,5 39,5 58,0 19,-5 36,-15 50,-29 14,-14 24,-31 29,-50 z"
     id="path3419" /><path
     fill="#ffff00"
     stroke="none"
     d="m 16818,7981 v 0 c -17,-10 -36,-15 -56,-15 -20,0 -39,5 -56,15 -17,10 -31,24 -41,41 l -420,728 v 0 c -10,17 -15,36 -15,56 0,19 5,39 15,56 10,17 24,31 41,41 v 0 0 c 17,10 36,15 56,15 20,0 39,-5 56,-15 17,-10 31,-24 41,-41 l 420,-728 v 0 0 c 10,-17 15,-36 15,-56 0,-19 -5,-39 -15,-56 -10,-17 -24,-31 -41,-41 z"
     id="path3426" /><path
     fill="#bf0041"
     stroke="none"
     d="m 9604,12326 v 0 c -20,0 -39,5 -56,15 -17,10 -31,24 -41,41 -10,17 -15,36 -15,56 v 840 0 c 0,20 5,39 15,56 10,17 24,31 41,41 17,10 36,15 56,15 v 0 0 c 20,0 39,-5 56,-15 17,-10 31,-24 41,-41 10,-17 15,-36 15,-56 v -840 0 0 c 0,-20 -5,-39 -15,-56 -10,-17 -24,-31 -41,-41 -17,-10 -36,-15 -56,-15 z"
     id="path3433" /><path
     fill="#81d41a"
     stroke="none"
     d="m 8867,13347 v 0 c -14,-14 -31,-24 -50,-29 -19,-5 -39,-5 -58,0 -19,5 -36,15 -50,29 l -594,594 v 0 c -14,14 -24,31 -29,50 -5,19 -5,39 0,58 5,19 15,36 29,50 v 0 0 c 14,14 31,24 50,29 19,5 39,5 58,0 19,-5 36,-15 50,-29 l 594,-594 v 0 0 c 14,-14 24,-31 29,-50 5,-19 5,-39 0,-58 -5,-19 -15,-36 -29,-50 z"
     id="path3440" /><path
     fill="#2a6099"
     stroke="none"
     d="m 8973,15058 v 0 c 0,20 5,39 15,56 10,17 24,31 41,41 17,10 36,15 56,15 h 840 v 0 c 20,0 39,-5 56,-15 17,-10 31,-24 41,-41 10,-17 15,-36 15,-56 v 0 0 c 0,-20 -5,-39 -15,-56 -10,-17 -24,-31 -41,-41 -17,-10 -36,-15 -56,-15 h -840 v 0 0 c -20,0 -39,5 -56,15 -17,10 -31,24 -41,41 -10,17 -15,36 -15,56 z"
     id="path3447" /><path
     fill="#2a6099"
     stroke="none"
     d="m 9505,10566 v 0 c 5,-19 5,-39 0,-58 -5,-19 -15,-37 -29,-50 -14,-14 -31,-24 -50,-29 l -812,-218 v 0 c -19,-5 -39,-5 -58,0 -19,5 -36,15 -50,29 -14,14 -24,31 -29,50 v 0 0 c -5,19 -5,39 0,58 5,19 15,37 29,50 14,14 31,24 50,29 l 812,218 v 0 0 c 19,5 39,5 58,0 19,-5 36,-15 50,-29 14,-14 24,-31 29,-50 z"
     id="path3454" /><path
     fill="#e8a202"
     stroke="none"
     d="m 9028,11629 v 0 c -17,-10 -36,-15 -56,-15 -20,0 -39,5 -56,15 -17,10 -31,24 -41,41 l -420,728 v 0 c -10,17 -15,36 -15,56 0,19 5,39 15,56 10,17 24,31 41,41 v 0 0 c 17,10 36,15 56,15 20,0 39,-5 56,-15 17,-10 31,-24 41,-41 l 420,-728 v 0 0 c 10,-17 15,-36 15,-56 0,-19 -5,-39 -15,-56 -10,-17 -24,-31 -41,-41 z"
     id="path3461" /><path
     fill="#55308d"
     stroke="none"
     d="m 16101,11412 v 0 c 14,14 31,24 50,29 19,5 39,5 58,0 19,-5 36,-15 50,-29 l 594,-594 v 0 c 14,-14 24,-31 29,-50 5,-19 5,-39 0,-58 -5,-19 -15,-36 -29,-50 v 0 0 c -14,-14 -31,-24 -50,-29 -19,-5 -39,-5 -58,0 -19,5 -36,15 -50,29 l -594,594 v 0 0 c -14,14 -24,31 -29,50 -5,19 -5,39 0,58 5,19 15,36 29,50 z"
     id="path3468" /><path
     fill="#81d41a"
     stroke="none"
     d="m 14989,11526 v 0 c -14,14 -24,31 -29,50 -5,19 -5,39 0,58 5,19 15,36 29,50 l 594,594 v 0 c 14,14 31,24 50,29 19,5 39,5 58,0 19,-5 36,-15 50,-29 v 0 0 c 14,-14 24,-31 29,-50 5,-19 5,-39 0,-58 -5,-19 -15,-36 -29,-50 l -594,-594 v 0 0 c -14,-14 -31,-24 -50,-29 -19,-5 -39,-5 -58,0 -19,5 -36,15 -50,29 z"
     id="path3475" /><path
     fill="#ffff00"
     stroke="none"
     d="m 16379,12706 v 0 c -20,0 -39,5 -56,15 -17,10 -31,24 -41,41 -10,17 -15,36 -15,56 v 840 0 c 0,20 5,39 15,56 10,17 24,31 41,41 17,10 36,15 56,15 v 0 0 c 20,0 39,-5 56,-15 17,-10 31,-24 41,-41 10,-17 15,-36 15,-56 v -840 0 0 c 0,-20 -5,-39 -15,-56 -10,-17 -24,-31 -41,-41 -17,-10 -36,-15 -56,-15 z"
     id="path3482" /><path
     fill="#bf0041"
     stroke="none"
     d="m 14968,12398 v 0 c -20,0 -39,5 -56,15 -17,10 -31,24 -41,41 -10,17 -15,36 -15,56 v 840 0 c 0,20 5,39 15,56 10,17 24,31 41,41 17,10 36,15 56,15 v 0 0 c 20,0 39,-5 56,-15 17,-10 31,-24 41,-41 10,-17 15,-36 15,-56 v -840 0 0 c 0,-20 -5,-39 -15,-56 -10,-17 -24,-31 -41,-41 -17,-10 -36,-15 -56,-15 z"
     id="path3489" /><path
     fill="#81d41a"
     stroke="none"
     d="m 14231,13419 v 0 c -14,-14 -31,-24 -50,-29 -19,-5 -39,-5 -58,0 -19,5 -36,15 -50,29 l -594,594 v 0 c -14,14 -24,31 -29,50 -5,19 -5,39 0,58 5,19 15,36 29,50 v 0 0 c 14,14 31,24 50,29 19,5 39,5 58,0 19,-5 36,-15 50,-29 l 594,-594 v 0 0 c 14,-14 24,-31 29,-50 5,-19 5,-39 0,-58 -5,-19 -15,-36 -29,-50 z"
     id="path3496" /><path
     fill="#2a6099"
     stroke="none"
     d="m 14337,15130 v 0 c 0,20 5,39 15,56 10,17 24,31 41,41 17,10 36,15 56,15 h 840 v 0 c 20,0 39,-5 56,-15 17,-10 31,-24 41,-41 10,-17 15,-36 15,-56 v 0 0 c 0,-20 -5,-39 -15,-56 -10,-17 -24,-31 -41,-41 -17,-10 -36,-15 -56,-15 h -840 v 0 0 c -20,0 -39,5 -56,15 -17,10 -31,24 -41,41 -10,17 -15,36 -15,56 z"
     id="path3503" /><path
     fill="#2a6099"
     stroke="none"
     d="m 18034,12567 v 0 c 5,-19 5,-39 0,-58 -5,-19 -15,-37 -29,-50 -14,-14 -31,-24 -50,-29 l -812,-218 v 0 c -19,-5 -39,-5 -58,0 -19,5 -36,15 -50,29 -14,14 -24,31 -29,50 v 0 0 c -5,19 -5,39 0,58 5,19 15,37 29,50 14,14 31,24 50,29 l 812,218 v 0 0 c 19,5 39,5 58,0 19,-5 36,-15 50,-29 14,-14 24,-31 29,-50 z"
     id="path3510" /><path
     fill="#e8a202"
     stroke="none"
     d="m 17557,13630 v 0 c -17,-10 -36,-15 -56,-15 -20,0 -39,5 -56,15 -17,10 -31,24 -41,41 l -420,728 v 0 c -10,17 -15,36 -15,56 0,19 5,39 15,56 10,17 24,31 41,41 v 0 0 c 17,10 36,15 56,15 20,0 39,-5 56,-15 17,-10 31,-24 41,-41 l 420,-728 v 0 0 c 10,-17 15,-36 15,-56 0,-19 -5,-39 -15,-56 -10,-17 -24,-31 -41,-41 z"
     id="path3517" /><path
     fill="#729fcf"
     stroke="none"
     d="m 13320,16163 v 0 c 14,14 31,24 50,29 19,5 39,5 58,0 19,-5 36,-15 50,-29 l 594,-594 v 0 c 14,-14 24,-31 29,-50 5,-19 5,-39 0,-58 -5,-19 -15,-36 -29,-50 v 0 0 c -14,-14 -31,-24 -50,-29 -19,-5 -39,-5 -58,0 -19,5 -36,15 -50,29 l -594,594 v 0 0 c -14,14 -24,31 -29,50 -5,19 -5,39 0,58 5,19 15,36 29,50 z"
     id="path3524" /><path
     fill="#800080"
     stroke="none"
     d="m 10129,14637 v 0 c 5,19 15,36 29,50 14,14 31,24 50,29 19,5 39,5 58,0 l 812,-218 v 0 c 19,-5 36,-15 50,-29 14,-13 24,-31 29,-50 5,-19 5,-39 0,-58 v 0 0 c -5,-19 -15,-36 -29,-50 -14,-14 -31,-24 -50,-29 -19,-5 -39,-5 -58,0 l -812,218 v 0 0 c -19,5 -36,15 -50,29 -14,13 -24,31 -29,50 -5,19 -5,39 0,58 z"
     id="path3531" /><path
     fill="#ffff00"
     stroke="none"
     d="m 13247,15678 v 0 c 20,0 39,-5 56,-15 17,-10 31,-24 41,-41 10,-17 15,-36 15,-56 v -840 0 c 0,-20 -5,-39 -15,-56 -10,-17 -24,-31 -41,-41 -17,-10 -36,-15 -56,-15 v 0 0 c -20,0 -39,5 -56,15 -17,10 -31,24 -41,41 -10,17 -15,36 -15,56 v 840 0 0 c 0,20 5,39 15,56 10,17 24,31 41,41 17,10 36,15 56,15 z"
     id="path3538" /><path
     fill="#729fcf"
     stroke="none"
     d="m 10127,15788 v 0 c 10,17 24,31 41,41 17,10 37,15 56,15 20,0 39,-5 56,-15 l 728,-420 v 0 c 17,-10 31,-24 41,-41 10,-17 15,-36 15,-56 0,-20 -5,-39 -15,-56 v 0 0 c -10,-17 -24,-31 -41,-41 -17,-10 -37,-15 -56,-15 -20,0 -39,5 -56,15 l -728,420 v 0 0 c -17,10 -31,24 -41,41 -10,17 -15,36 -15,56 0,20 5,39 15,56 z"
     id="path3545" /><path
     fill="#ff4000"
     stroke="none"
     d="m 11378,16192 v 0 c 5,19 15,36 29,50 14,14 31,24 50,29 19,5 39,5 58,0 l 812,-218 v 0 c 19,-5 36,-15 50,-29 14,-13 24,-31 29,-50 5,-19 5,-39 0,-58 v 0 0 c -5,-19 -15,-36 -29,-50 -14,-14 -31,-24 -50,-29 -19,-5 -39,-5 -58,0 l -812,218 v 0 0 c -19,5 -36,15 -50,29 -14,13 -24,31 -29,50 -5,19 -5,39 0,58 z"
     id="path3552" /><path
     fill="#ffbf00"
     stroke="none"
     d="m 12010,14509 v 0 c 0,20 5,39 15,56 10,17 24,31 41,41 17,10 36,15 56,15 h 840 v 0 c 20,0 39,-5 56,-15 17,-10 31,-24 41,-41 10,-17 15,-36 15,-56 v 0 0 c 0,-20 -5,-39 -15,-56 -10,-17 -24,-31 -41,-41 -17,-10 -36,-15 -56,-15 h -840 v 0 0 c -20,0 -39,5 -56,15 -17,10 -31,24 -41,41 -10,17 -15,36 -15,56 z"
     id="path3559" /><path
     fill="#55308d"
     stroke="none"
     d="m 15903,14286 v 0 c 5,-19 5,-39 0,-58 -5,-19 -15,-37 -29,-50 -14,-14 -31,-24 -50,-29 l -812,-218 v 0 c -19,-5 -39,-5 -58,0 -19,5 -36,15 -50,29 -14,14 -24,31 -29,50 v 0 0 c -5,19 -5,39 0,58 5,19 15,37 29,50 14,14 31,24 50,29 l 812,218 v 0 0 c 19,5 39,5 58,0 19,-5 36,-15 50,-29 14,-14 24,-31 29,-50 z"
     id="path3566" /><path
     fill="#55308d"
     stroke="none"
     d="m 10215,13430 v 0 c 0,20 5,39 15,56 10,17 24,31 41,41 17,10 36,15 56,15 h 840 v 0 c 20,0 39,-5 56,-15 17,-10 31,-24 41,-41 10,-17 15,-36 15,-56 v 0 0 c 0,-20 -5,-39 -15,-56 -10,-17 -24,-31 -41,-41 -17,-10 -36,-15 -56,-15 h -840 v 0 0 c -20,0 -39,5 -56,15 -17,10 -31,24 -41,41 -10,17 -15,36 -15,56 z"
     id="path3573" /><path
     fill="#bf0041"
     stroke="none"
     d="m 7230,7628 v 0 c -20,0 -39,5 -56,15 -17,10 -31,24 -41,41 -10,17 -15,36 -15,56 v 840 0 c 0,20 5,39 15,56 10,17 24,31 41,41 17,10 36,15 56,15 v 0 0 c 20,0 39,-5 56,-15 17,-10 31,-24 41,-41 10,-17 15,-36 15,-56 v -840 0 0 c 0,-20 -5,-39 -15,-56 -10,-17 -24,-31 -41,-41 -17,-10 -36,-15 -56,-15 z"
     id="path3580" /></g>
</svg>
